<svg width="30" height="36" viewBox="0 0 30 36" fill="none" xmlns="http://www.w3.org/2000/svg">
<path d="M11.5787 33.3362C17.074 27.1883 21.3726 22.2739 26.1539 16.9984C27.7324 15.1436 28.7322 13.3282 29.1531 11.5524C29.8898 8.20118 28.7572 5.29919 26.7853 3.02828C24.8911 0.89726 22.8653 -0.109061 20.7079 0.00934954C18.5506 0.12776 16.4196 1.35113 14.3149 3.67946L0.897248 18.8334L3.10722 21.2604L16.5248 6.16562C17.9016 4.69301 19.54 3.30467 21.4183 3.50183C24.2801 3.95381 26.8074 7.89431 26.1539 10.6645C25.3254 13.1222 24.1831 14.2431 22.6022 16.0216C17.7931 21.418 14.0434 25.5911 9.36882 30.85C7.61202 32.6559 6.47586 33.1449 4.8437 31.4419C4.00181 30.4948 3.63349 29.5674 3.73871 28.6598C3.85549 27.6007 4.38839 26.8682 5.00151 26.1736L17.2615 12.3811C17.8215 11.7499 19.0971 10.5383 19.6293 11.0788C20.0376 12.1444 18.9861 13.1615 18.4717 13.7426L7.21146 26.4103L9.36877 28.8966L20.6816 16.2288C22.6301 13.9679 24.03 11.205 21.8392 8.65184C19.4162 6.3122 16.8636 7.87415 15.0515 9.89495L2.79154 23.6874C1.52874 25.108 0.809594 26.6471 0.634234 28.3046C0.495888 30.6283 1.42711 32.4935 2.68631 33.9282C3.86991 35.2525 5.14861 35.986 6.73794 36C8.64877 35.9139 10.5276 34.498 11.5787 33.3362Z" fill="#004B47"/>
</svg>
