<svg width="20" height="20" viewBox="0 0 20 20" fill="none" xmlns="http://www.w3.org/2000/svg">
<path d="M6.48076 2.3125H6.28121C6.39096 2.3125 6.48076 2.22812 6.48076 2.125V2.3125H14.0636V2.125C14.0636 2.22812 14.1534 2.3125 14.2632 2.3125H14.0636V4H15.8596V2.125C15.8596 1.29766 15.1437 0.625 14.2632 0.625H6.28121C5.4007 0.625 4.68482 1.29766 4.68482 2.125V4H6.48076V2.3125ZM19.0523 4H1.49204C1.05054 4 0.693848 4.33516 0.693848 4.75V5.5C0.693848 5.60313 0.783645 5.6875 0.893396 5.6875H2.39999L3.0161 17.9453C3.05601 18.7445 3.75941 19.375 4.60999 19.375H15.9344C16.7875 19.375 17.4884 18.7469 17.5283 17.9453L18.1444 5.6875H19.651C19.7607 5.6875 19.8505 5.60313 19.8505 5.5V4.75C19.8505 4.33516 19.4938 4 19.0523 4ZM15.7423 17.6875H4.80206L4.19842 5.6875H16.346L15.7423 17.6875Z" fill="#004B47"/>
</svg>
