<svg width="25" height="21" viewBox="0 0 25 21" fill="none" xmlns="http://www.w3.org/2000/svg">
<path d="M23.2915 18H1.70817C0.856731 18 0.166504 18.5223 0.166504 19.1667C0.166504 19.811 0.856731 20.3333 1.70817 20.3333H23.2915C24.1429 20.3333 24.8332 19.811 24.8332 19.1667C24.8332 18.5223 24.1429 18 23.2915 18Z" fill="#004B47"/>
<path d="M0.166504 16.8335L0.166504 19.1668C0.166504 19.8112 0.856731 20.3335 1.70817 20.3335C2.55961 20.3335 3.24984 19.8112 3.24984 19.1668L3.24984 16.8335C3.24984 16.1892 2.55961 15.6668 1.70817 15.6668C0.856731 15.6668 0.166504 16.1892 0.166504 16.8335Z" fill="#004B47"/>
<path d="M21.75 16.8335V19.1668C21.75 19.8112 22.4402 20.3335 23.2917 20.3335C24.1431 20.3335 24.8333 19.8112 24.8333 19.1668V16.8335C24.8333 16.1892 24.1431 15.6668 23.2917 15.6668C22.4402 15.6668 21.75 16.1892 21.75 16.8335Z" fill="#004B47"/>
<path d="M12.5001 14.4998C12.1805 14.5017 11.868 14.4283 11.6059 14.2898L5.43923 10.9998C5.10687 10.8214 4.88137 10.5507 4.81204 10.2468C4.7427 9.94291 4.83517 9.63061 5.06923 9.37817C5.18607 9.252 5.33478 9.14458 5.50677 9.06213C5.67876 8.97968 5.87062 8.92383 6.07129 8.89779C6.27196 8.87176 6.47746 8.87607 6.67592 8.91046C6.87438 8.94485 7.06187 9.00865 7.22757 9.09817L12.5001 11.8865L17.7417 8.89984C18.0688 8.71419 18.48 8.63448 18.8848 8.67823C19.2895 8.72199 19.6547 8.88564 19.9001 9.13317C20.1454 9.38071 20.2507 9.69186 20.1929 9.99817C20.1351 10.3045 19.9188 10.5809 19.5917 10.7665L13.4251 14.2665C13.1582 14.418 12.8336 14.4998 12.5001 14.4998Z" fill="#004B47"/>
<path d="M12.4997 12.1667C12.0908 12.1667 11.6987 12.0438 11.4096 11.825C11.1204 11.6062 10.958 11.3094 10.958 11V1.66667C10.958 1.35725 11.1204 1.0605 11.4096 0.841709C11.6987 0.622916 12.0908 0.5 12.4997 0.5C12.9086 0.5 13.3007 0.622916 13.5898 0.841709C13.8789 1.0605 14.0413 1.35725 14.0413 1.66667V11C14.0413 11.3094 13.8789 11.6062 13.5898 11.825C13.3007 12.0438 12.9086 12.1667 12.4997 12.1667Z" fill="#004B47"/>
</svg>
