<svg width="22" height="19" viewBox="0 0 22 19" fill="none" xmlns="http://www.w3.org/2000/svg">
<path d="M15.8931 1C16.3286 0.62506 16.9191 0.414429 17.5348 0.414429C18.1505 0.414429 18.741 0.62506 19.1765 1L21.0178 2.586C21.4531 2.96106 21.6977 3.46967 21.6977 4C21.6977 4.53033 21.4531 5.03895 21.0178 5.414L11.7297 13.414C11.2944 13.7891 10.7039 13.9999 10.0881 14H8.2467C7.63086 14 7.04025 13.7893 6.60479 13.4142C6.16932 13.0391 5.92468 12.5304 5.92468 12V10.414C5.92481 9.88361 6.16954 9.37499 6.60503 9L15.8931 1ZM15.6934 4L17.5348 5.586L19.3762 4L20.197 4.707L17.5348 2.414L15.6934 4V4ZM15.8931 7L14.0518 5.414L8.2467 10.414V12H10.0881L15.8931 7ZM0.119629 5C0.119629 4.20435 0.48659 3.44129 1.13979 2.87868C1.79298 2.31607 2.6789 2 3.60266 2H7.08569C7.39361 2 7.68892 2.10536 7.90665 2.2929C8.12438 2.48043 8.2467 2.73479 8.2467 3C8.2467 3.26522 8.12438 3.51957 7.90665 3.70711C7.68892 3.89464 7.39361 4 7.08569 4H3.60266C3.29474 4 2.99943 4.10536 2.7817 4.2929C2.56397 4.48043 2.44165 4.73479 2.44165 5V16C2.44165 16.2652 2.56397 16.5196 2.7817 16.7071C2.99943 16.8946 3.29474 17 3.60266 17H16.3738C16.6817 17 16.977 16.8946 17.1947 16.7071C17.4125 16.5196 17.5348 16.2652 17.5348 16V13C17.5348 12.7348 17.6571 12.4804 17.8748 12.2929C18.0926 12.1054 18.3879 12 18.6958 12C19.0037 12 19.299 12.1054 19.5168 12.2929C19.7345 12.4804 19.8568 12.7348 19.8568 13V16C19.8568 16.7957 19.4898 17.5587 18.8367 18.1213C18.1835 18.6839 17.2975 19 16.3738 19H3.60266C2.6789 19 1.79298 18.6839 1.13979 18.1213C0.48659 17.5587 0.119629 16.7957 0.119629 16V5Z" fill="#004B47"/>
</svg>
