<svg width="24" height="27" viewBox="0 0 24 27" fill="none" xmlns="http://www.w3.org/2000/svg">
<path d="M23.1429 0.100021H0.857143C0.383036 0.100021 0 0.636271 0 1.30002V25.3C0 25.9638 0.383036 26.5 0.857143 26.5H23.1429C23.617 26.5 24 25.9638 24 25.3V1.30002C24 0.636271 23.617 0.100021 23.1429 0.100021ZM20.6116 2.80377L12 12.175L3.38839 2.80377H20.6116ZM22.0714 4.25502V23.8H1.92857V4.25502L1.18929 3.44877L1.92589 4.25127L11.0759 14.2113C11.339 14.4975 11.6628 14.6528 11.996 14.6528C12.3292 14.6528 12.6529 14.4975 12.9161 14.2113L22.0714 4.25502L22.8107 3.44877L21.758 1.55502H21.7607L22.8134 3.44877L22.0714 4.25502Z" fill="white"/>
</svg>
