<svg width="26" height="28" viewBox="0 0 26 28" fill="none" xmlns="http://www.w3.org/2000/svg">
<path d="M6 14C5.73478 14 5.48043 14.1054 5.29289 14.2929C5.10536 14.4804 5 14.7348 5 15V20C5 20.2652 5.10536 20.5196 5.29289 20.7071C5.48043 20.8946 5.73478 21 6 21C6.26522 21 6.51957 20.8946 6.70711 20.7071C6.89464 20.5196 7 20.2652 7 20V19H7.5C8.16304 19 8.79893 18.7366 9.26777 18.2678C9.73661 17.7989 10 17.163 10 16.5C10 15.837 9.73661 15.2011 9.26777 14.7322C8.79893 14.2634 8.16304 14 7.5 14H6ZM7.5 17H7V16H7.5C7.63261 16 7.75979 16.0527 7.85355 16.1464C7.94732 16.2402 8 16.3674 8 16.5C8 16.6326 7.94732 16.7598 7.85355 16.8536C7.75979 16.9473 7.63261 17 7.5 17ZM11 15C11 14.7348 11.1054 14.4804 11.2929 14.2929C11.4804 14.1054 11.7348 14 12 14H12.5C13.4283 14 14.3185 14.3687 14.9749 15.0251C15.6313 15.6815 16 16.5717 16 17.5C16 18.4283 15.6313 19.3185 14.9749 19.9749C14.3185 20.6313 13.4283 21 12.5 21H12C11.7348 21 11.4804 20.8946 11.2929 20.7071C11.1054 20.5196 11 20.2652 11 20V15ZM13 18.915C13.293 18.8119 13.5468 18.6204 13.7263 18.367C13.9058 18.1135 14.0022 17.8106 14.0022 17.5C14.0022 17.1894 13.9058 16.8865 13.7263 16.633C13.5468 16.3796 13.293 16.1881 13 16.085V18.915ZM17 20V15C17 14.7348 17.1054 14.4804 17.2929 14.2929C17.4804 14.1054 17.7348 14 18 14H21C21.2652 14 21.5196 14.1054 21.7071 14.2929C21.8946 14.4804 22 14.7348 22 15C22 15.2652 21.8946 15.5196 21.7071 15.7071C21.5196 15.8946 21.2652 16 21 16H19V17H21C21.2652 17 21.5196 17.1054 21.7071 17.2929C21.8946 17.4804 22 17.7348 22 18C22 18.2652 21.8946 18.5196 21.7071 18.7071C21.5196 18.8946 21.2652 19 21 19H19V20C19 20.2652 18.8946 20.5196 18.7071 20.7071C18.5196 20.8946 18.2652 21 18 21C17.7348 21 17.4804 20.8946 17.2929 20.7071C17.1054 20.5196 17 20.2652 17 20ZM3 3V11H2C1.46957 11 0.960859 11.2107 0.585786 11.5858C0.210714 11.9609 0 12.4696 0 13V22C0 22.5304 0.210714 23.0391 0.585786 23.4142C0.960859 23.7893 1.46957 24 2 24H3V25C3 25.7956 3.31607 26.5587 3.87868 27.1213C4.44129 27.6839 5.20435 28 6 28H20C20.7956 28 21.5587 27.6839 22.1213 27.1213C22.6839 26.5587 23 25.7956 23 25V24H24C24.5304 24 25.0391 23.7893 25.4142 23.4142C25.7893 23.0391 26 22.5304 26 22V13C26 12.4696 25.7893 11.9609 25.4142 11.5858C25.0391 11.2107 24.5304 11 24 11H23V7.828C22.9996 7.03276 22.6834 6.27023 22.121 5.708L17.293 0.878C16.7304 0.315719 15.9674 -9.53012e-05 15.172 2.15723e-08H6C5.20435 2.15723e-08 4.44129 0.316071 3.87868 0.87868C3.31607 1.44129 3 2.20435 3 3V3ZM6 2H13V7C13 7.79565 13.3161 8.55871 13.8787 9.12132C14.4413 9.68393 15.2044 10 16 10H21V11H5V3C5 2.73478 5.10536 2.48043 5.29289 2.29289C5.48043 2.10536 5.73478 2 6 2V2ZM5 25V24H21V25C21 25.2652 20.8946 25.5196 20.7071 25.7071C20.5196 25.8946 20.2652 26 20 26H6C5.73478 26 5.48043 25.8946 5.29289 25.7071C5.10536 25.5196 5 25.2652 5 25ZM21 7.828V8H16C15.7348 8 15.4804 7.89464 15.2929 7.70711C15.1054 7.51957 15 7.26522 15 7V2H15.172C15.4372 2.00006 15.6915 2.10545 15.879 2.293L20.707 7.121C20.8946 7.30849 20.9999 7.56281 21 7.828V7.828ZM2 13H24V22H2V13Z" fill="#128277"/>
</svg>
