<svg width="24" height="27" viewBox="0 0 24 27" fill="none" xmlns="http://www.w3.org/2000/svg">
<path d="M18.558 26.8999C18.3244 26.8992 18.0915 26.8704 17.8634 26.814C13.5197 25.8032 9.51811 23.4333 6.31902 19.977C3.18821 16.5132 1.01682 12.1029 0.0675746 7.27983C-0.0443532 6.67873 -0.0168817 6.05534 0.147346 5.46965C0.311574 4.88395 0.607031 4.35565 1.00529 3.93558L3.78371 0.927317C3.92563 0.776347 4.09424 0.660737 4.27856 0.588033C4.46288 0.515329 4.65876 0.487165 4.85341 0.505379C5.05523 0.529064 5.25 0.6022 5.424 0.719644C5.59801 0.837088 5.74703 0.995987 5.86058 1.18517L9.33361 6.95947C9.46385 7.18352 9.52672 7.44868 9.51297 7.71593C9.49921 7.98319 9.40956 8.23842 9.25721 8.44406L7.51375 10.7882C8.20811 12.5169 9.19146 14.0793 10.4103 15.3904C11.6212 16.749 13.0524 17.8339 14.6265 18.5862L16.7867 16.6562C16.9682 16.4949 17.1889 16.3996 17.4197 16.3828C17.6505 16.3661 17.8803 16.4287 18.0787 16.5625L23.323 20.3755C23.5029 20.4964 23.6563 20.6615 23.7714 20.8585C23.8866 21.0555 23.9607 21.2793 23.9881 21.513C24.0155 21.7468 23.9955 21.9845 23.9296 22.2083C23.8638 22.4322 23.7537 22.6364 23.6078 22.8056L20.8988 25.8217C20.5911 26.1661 20.2258 26.4387 19.8241 26.6238C19.4224 26.8088 18.9921 26.9027 18.558 26.8999ZM4.74227 2.05248L1.96385 5.06075C1.7398 5.29559 1.57396 5.59198 1.48261 5.92078C1.39127 6.24958 1.37758 6.59947 1.44289 6.93603C2.32554 11.4618 4.35448 15.6032 7.28453 18.8597C10.2951 22.1114 14.0608 24.3405 18.1482 25.2903C18.4575 25.3631 18.7781 25.3483 19.0812 25.2474C19.3843 25.1465 19.6603 24.9626 19.8847 24.7121L22.5936 21.696L17.53 18.0158L15.21 20.0942C15.1212 20.1733 15.0165 20.2268 14.9051 20.2499C14.7937 20.2731 14.679 20.2652 14.5709 20.2271C12.6446 19.4287 10.8989 18.1613 9.45864 16.5156C7.96896 14.9507 6.81263 13.0276 6.07591 10.8897C6.04475 10.7603 6.04371 10.6241 6.07291 10.494C6.1021 10.364 6.16055 10.2447 6.24262 10.1474L8.11805 7.62363L4.74227 2.05248Z" fill="white"/>
</svg>
