<svg width="16" height="13" viewBox="0 0 16 13" fill="none" xmlns="http://www.w3.org/2000/svg">
<path d="M6.5476 9.5691C6.59678 9.61019 6.63579 9.65896 6.66241 9.71265C6.68903 9.76634 6.70273 9.82389 6.70273 9.88201C6.70273 9.94012 6.68903 9.99767 6.66241 10.0514C6.63579 10.105 6.59678 10.1538 6.5476 10.1949L3.72447 12.5545C3.69952 12.5753 3.67215 12.5941 3.64277 12.6104C3.64083 12.6114 3.6388 12.6122 3.63686 12.6133C3.60972 12.6281 3.58101 12.6407 3.55109 12.651C3.5488 12.6518 3.54651 12.6524 3.5443 12.6532C3.51458 12.6631 3.48383 12.6707 3.45245 12.6759L3.44715 12.6766C3.38287 12.687 3.3168 12.687 3.25251 12.6766L3.24722 12.6759C3.21583 12.6707 3.18509 12.6631 3.15537 12.6532C3.15316 12.6524 3.15087 12.6518 3.14857 12.651C3.11866 12.6407 3.08995 12.6281 3.06281 12.6133C3.06087 12.6122 3.05884 12.6114 3.0569 12.6104C3.02751 12.5941 3.00014 12.5753 2.97519 12.5545L0.152066 10.1949C0.0541077 10.1117 -0.000548013 9.99953 4.14325e-06 9.8828C0.0005563 9.76608 0.0562718 9.65426 0.155014 9.57171C0.253757 9.48916 11.1512 12.2424 11.2909 12.2419C11.4305 12.2414 0.969145 9.67372 1.06871 9.75557L2.82043 11.1737V0.442478C2.82043 0.325125 2.87621 0.212579 2.97549 0.129599C3.07477 0.046618 3.20943 0 3.34983 0C3.49024 0 3.62489 0.046618 3.72418 0.129599C3.82346 0.212579 3.87924 0.325125 3.87924 0.442478V11.1737L5.79902 9.5691C5.84818 9.52802 5.90653 9.49543 5.97075 9.4732C6.03497 9.45096 6.1038 9.43952 6.17331 9.43952C6.24282 9.43952 6.31166 9.45096 6.37588 9.4732C6.4401 9.49543 6.49845 9.52802 6.5476 9.5691ZM15.018 2.48945L12.1949 0.129867C12.17 0.109033 12.1426 0.0903315 12.1132 0.0740414C12.1113 0.0729352 12.1092 0.072124 12.1073 0.0710178C12.0802 0.0563264 12.0516 0.043737 12.0217 0.033407C12.0193 0.0325221 12.0169 0.0319322 12.0146 0.0311947C11.9849 0.021327 11.9543 0.0137247 11.923 0.00848095L11.9175 0.00774333C11.8855 0.00268609 11.853 9.41298e-05 11.8204 0C11.7879 9.86386e-05 11.755 0.00269058 11.723 0.00774333L11.7176 0.00848095C11.6863 0.0137008 11.6556 0.0212784 11.626 0.031121C11.6236 0.0319322 11.6212 0.0325221 11.6189 0.0333333C11.5891 0.0436633 11.5604 0.0562527 11.5333 0.0709441C11.5313 0.072124 11.5293 0.0729352 11.5273 0.0740414C11.4979 0.0903315 11.4706 0.109033 11.4456 0.129867L8.6225 2.48945C8.52454 2.57265 8.46989 2.68483 8.47044 2.80156C8.47099 2.91829 8.52671 3.03011 8.62545 3.11265C8.72419 3.1952 8.85796 3.2418 8.99762 3.24229C9.13728 3.24278 9.27151 3.19712 9.37108 3.11527L11.2909 1.51069V12.2419C11.2909 12.3592 11.3466 12.4718 11.4459 12.5548C11.5452 12.6377 11.6799 12.6844 11.8203 12.6844C11.9607 12.6844 12.0953 12.6377 12.1946 12.5548C12.2939 12.4718 12.3497 12.3592 12.3497 12.2419V1.51069L14.2695 3.11527C14.369 3.19712 14.5033 3.24278 14.6429 3.24229C14.7826 3.2418 14.9163 3.1952 15.0151 3.11265C15.1138 3.03011 15.1695 2.91829 15.1701 2.80156C15.1707 2.68483 15.116 2.57265 15.018 2.48945Z" fill="#128277"/>
</svg>
