<svg width="22" height="23" viewBox="0 0 22 23" fill="none" xmlns="http://www.w3.org/2000/svg">
<path d="M17.5312 20.8438C18.8581 20.8438 19.9375 19.7153 19.9375 18.3281C19.9375 16.9409 18.8581 15.8125 17.5312 15.8125C16.2044 15.8125 15.125 16.9409 15.125 18.3281C15.125 19.7153 16.2044 20.8438 17.5312 20.8438ZM17.5312 16.5312C18.4786 16.5312 19.25 17.337 19.25 18.3281C19.25 19.3193 18.4786 20.125 17.5312 20.125C16.5839 20.125 15.8125 19.3193 15.8125 18.3281C15.8125 17.337 16.5839 16.5312 17.5312 16.5312Z" fill="#128277"/>
<path d="M12.8783 17.2138C12.8783 18.2567 13.1238 19.5648 13.4531 20.3051C14.1268 22.0926 15.4523 22.9997 17.3938 22.9997C19.9335 22.9997 22.0001 20.8391 22.0001 18.1841C22.0001 15.6016 20.0627 13.7278 17.3938 13.7278C14.3599 13.7278 13.3699 12.0237 13.3307 11.9532C13.3171 11.9287 13.301 11.9058 13.2826 11.885L2.72604 0.113273C2.6789 0.0606382 2.61771 0.0240433 2.55042 0.00824475C2.48313 -0.00755379 2.41284 -0.00182545 2.34871 0.0246853C2.28457 0.051196 2.22954 0.0972631 2.19078 0.156899C2.15202 0.216536 2.13131 0.286983 2.13135 0.359086C2.13135 7.29574 6.5561 10.9355 9.78666 13.592C11.5143 15.013 12.8783 16.1342 12.8783 17.2138ZM2.8491 1.30137L12.7573 12.35C12.9416 12.6547 14.1626 14.4466 17.3938 14.4466C19.6647 14.4466 21.3126 16.0185 21.3126 18.1841C21.3126 20.4438 19.5547 22.281 17.3938 22.281C15.7404 22.281 14.6603 21.5478 14.0849 20.0212C13.8333 19.4563 13.5658 18.2797 13.5658 17.2138C13.5658 15.7856 12.0857 14.5681 10.2122 13.0271C7.24429 10.5862 3.23272 7.28784 2.8491 1.30137Z" fill="#128277"/>
<path d="M2.0625 18.3281C2.0625 19.7153 3.14188 20.8438 4.46875 20.8438C5.79562 20.8438 6.875 19.7153 6.875 18.3281C6.875 16.9409 5.79562 15.8125 4.46875 15.8125C3.14188 15.8125 2.0625 16.9409 2.0625 18.3281ZM6.1875 18.3281C6.1875 19.3193 5.41613 20.125 4.46875 20.125C3.52137 20.125 2.75 19.3193 2.75 18.3281C2.75 17.337 3.52137 16.5312 4.46875 16.5312C5.41613 16.5312 6.1875 17.337 6.1875 18.3281Z" fill="#128277"/>
<path d="M14.1861 11.1195C14.151 11.1508 14.1224 11.1892 14.1018 11.2323C14.0812 11.2754 14.0692 11.3224 14.0663 11.3705C14.0635 11.4186 14.0699 11.4668 14.0853 11.5122C14.1006 11.5577 14.1245 11.5994 14.1556 11.635C14.1867 11.6706 14.2243 11.6993 14.2662 11.7194C14.3081 11.7394 14.3534 11.7505 14.3995 11.7519C14.4456 11.7533 14.4915 11.745 14.5344 11.7275C14.5773 11.7099 14.6165 11.6836 14.6495 11.6499C17.0798 9.33555 19.869 5.96102 19.869 0.359086C19.869 0.286983 19.8483 0.216536 19.8095 0.156899C19.7708 0.0972631 19.7157 0.051196 19.6516 0.0246853C19.5875 -0.00182545 19.5172 -0.00755379 19.4499 0.00824475C19.3826 0.0240433 19.3214 0.0606382 19.2743 0.113273L11.7668 8.48384C11.7044 8.55341 11.671 8.64604 11.674 8.74134C11.677 8.83664 11.716 8.9268 11.7826 8.99199C11.8491 9.05719 11.9377 9.09207 12.0289 9.08897C12.12 9.08587 12.2063 9.04504 12.2686 8.97546L19.1533 1.29921C18.8604 6.06452 16.3716 9.03727 14.1861 11.1195Z" fill="#128277"/>
<path d="M7.50131 13.5811C7.54334 13.5641 7.58175 13.5386 7.61434 13.506C7.64693 13.4735 7.67307 13.4345 7.69126 13.3914C7.70946 13.3483 7.71935 13.3018 7.72038 13.2547C7.72141 13.2076 7.71355 13.1607 7.69725 13.1168C7.68095 13.0729 7.65654 13.0327 7.6254 12.9986C7.59426 12.9646 7.55701 12.9372 7.51577 12.9182C7.47453 12.8992 7.43011 12.8889 7.38504 12.8878C7.33998 12.8867 7.29515 12.8949 7.25313 12.912C7.09484 12.9781 6.93805 13.0481 6.78288 13.1218C6.20263 13.3914 5.48006 13.7277 4.60625 13.7277C1.93737 13.7277 0 15.6015 0 18.184C0 20.8391 2.06662 22.9996 4.60625 22.9996C6.54775 22.9996 7.87325 22.0926 8.53806 20.3244C8.88594 19.5446 8.9375 17.8376 8.9375 16.8902C8.9375 16.6969 9.46138 16.2843 9.77488 16.0378C10.0643 15.8107 10.3634 15.5749 10.5696 15.332C10.6302 15.2607 10.6611 15.1672 10.6557 15.072C10.6503 14.9769 10.6089 14.8878 10.5407 14.8246C10.4726 14.7613 10.3831 14.7289 10.2921 14.7346C10.2011 14.7402 10.1159 14.7835 10.0554 14.8547C9.8945 15.0452 9.62362 15.258 9.361 15.4642C8.78969 15.9142 8.25 16.3382 8.25 16.8902C8.25 18.3795 8.12488 19.5503 7.90694 20.0412C7.33975 21.5477 6.25969 22.2809 4.60625 22.2809C3.56727 22.2797 2.57115 21.8477 1.83648 21.0797C1.10181 20.3116 0.688592 19.2702 0.6875 18.184C0.6875 16.0177 2.33544 14.4465 4.60625 14.4465C5.6265 14.4465 6.45631 14.0598 7.06269 13.7773C7.21944 13.704 7.36588 13.6365 7.50131 13.5811Z" fill="#128277"/>
<path d="M10.9999 12.7866C11.306 12.7866 11.5541 12.5272 11.5541 12.2072C11.5541 11.8873 11.306 11.6279 10.9999 11.6279C10.6939 11.6279 10.4458 11.8873 10.4458 12.2072C10.4458 12.5272 10.6939 12.7866 10.9999 12.7866Z" fill="#128277"/>
</svg>
