<svg width="23" height="18" viewBox="0 0 23 18" fill="none" xmlns="http://www.w3.org/2000/svg">
<path d="M20.4624 1.62688C21.7069 3.03996 22.3751 4.62484 22.3751 7.19396C22.3751 11.7148 19.4063 15.7668 15.0889 17.7701L14.0099 15.9902C18.0396 13.66 18.8275 10.6363 19.1416 8.72976C18.4928 9.08884 17.6433 9.21413 16.8108 9.13146C14.6309 8.91576 12.9127 7.0028 12.9127 4.62484C12.9127 3.42584 13.3583 2.27595 14.1514 1.42813C14.9445 0.580305 16.0202 0.104004 17.1419 0.104004C18.4384 0.104004 19.6781 0.73692 20.4624 1.62688ZM8.37902 1.62688C9.62361 3.03996 10.2918 4.62484 10.2918 7.19396C10.2918 11.7148 7.32294 15.7668 3.00557 17.7701L1.92652 15.9902C5.95632 13.66 6.74415 10.6363 7.05832 8.72976C6.40944 9.08884 5.55998 9.21413 4.72744 9.13146C2.54761 8.91576 0.830566 7.0028 0.830566 4.62484C0.830566 3.42584 1.27614 2.27595 2.06926 1.42813C2.86238 0.580305 3.93809 0.104004 5.05973 0.104004C6.35627 0.104004 7.59602 0.73692 8.38023 1.62688H8.37902Z" fill="#128277"/>
</svg>
