<svg width="16" height="23" viewBox="0 0 16 23" fill="none" xmlns="http://www.w3.org/2000/svg">
<path d="M1.28895 0.388672C1.14161 0.388672 1.0003 0.461836 0.896117 0.59207C0.79193 0.722303 0.733398 0.898938 0.733398 1.08312V21.9164C0.733398 22.1006 0.79193 22.2773 0.896117 22.4075C1.0003 22.5377 1.14161 22.6109 1.28895 22.6109C1.4363 22.6109 1.5776 22.5377 1.68179 22.4075C1.78598 22.2773 1.84451 22.1006 1.84451 21.9164V1.08312C1.84451 0.898938 1.78598 0.722303 1.68179 0.59207C1.5776 0.461836 1.4363 0.388672 1.28895 0.388672Z" fill="#128277"/>
<path d="M14.9444 1.65256C14.86 1.59161 14.7642 1.55952 14.6667 1.55952C14.5691 1.55952 14.4733 1.59161 14.3889 1.65256C13.3119 2.21847 12.1513 2.49301 10.9833 2.45812C9.97709 2.36609 8.99713 2.01373 8.10556 1.42339C7.24809 0.844304 6.30443 0.492086 5.33333 0.388672C4.53191 0.389764 3.7387 0.590429 3 0.97895V12.8887C3.7238 12.3936 4.53605 12.1356 5.36111 12.1387C6.17813 12.24 6.97109 12.5421 7.69444 13.0276C8.72785 13.7021 9.86396 14.095 11.0278 14.1803C12.3636 14.215 13.6898 13.8906 14.9167 13.229C15.0083 13.1712 15.0853 13.0829 15.1393 12.9739C15.1932 12.8648 15.2219 12.7391 15.2222 12.6109V2.24284C15.2207 2.12283 15.1943 2.00537 15.1456 1.90192C15.0969 1.79847 15.0276 1.71256 14.9444 1.65256Z" fill="#128277"/>
</svg>
