<svg width="27" height="21" viewBox="0 0 27 21" fill="none" xmlns="http://www.w3.org/2000/svg">
<path d="M0 0H27V21H0V0ZM1.6875 1.75V19.25H25.3125V1.75H1.6875ZM3.38513 17.5473C3.38513 17.5473 5.14012 5.257 7.74647 5.257C10.3528 5.257 11.4944 13.9265 13.5903 13.9265C15.6862 13.9265 15.5292 10.5394 17.0632 10.5394C18.5971 10.5394 23.8807 17.5481 23.8807 17.5481L3.38513 17.5473ZM21.0938 8.75C20.7613 8.75 20.4322 8.6821 20.1251 8.55018C19.818 8.41827 19.5389 8.22491 19.3039 7.98116C19.0688 7.7374 18.8824 7.44802 18.7552 7.12954C18.628 6.81106 18.5625 6.46972 18.5625 6.125C18.5625 5.78028 18.628 5.43894 18.7552 5.12046C18.8824 4.80198 19.0688 4.5126 19.3039 4.26884C19.5389 4.02509 19.818 3.83173 20.1251 3.69982C20.4322 3.5679 20.7613 3.5 21.0938 3.5C21.7651 3.5 22.4089 3.77656 22.8836 4.26884C23.3583 4.76113 23.625 5.42881 23.625 6.125C23.625 6.82119 23.3583 7.48887 22.8836 7.98116C22.4089 8.47344 21.7651 8.75 21.0938 8.75Z" fill="#128277"/>
</svg>
