<svg width="17" height="21" viewBox="0 0 17 21" fill="none" xmlns="http://www.w3.org/2000/svg">
<path d="M15.4199 1.00012H8.0999C7.94731 0.985519 7.79335 1.00297 7.6479 1.05136C7.50245 1.09975 7.36872 1.178 7.25528 1.2811C7.14185 1.3842 7.05122 1.50987 6.98919 1.65005C6.92717 1.79023 6.89514 1.94183 6.89514 2.09512C6.89514 2.24841 6.92717 2.4 6.98919 2.54018C7.05122 2.68036 7.14185 2.80603 7.25528 2.90913C7.36872 3.01223 7.50245 3.09048 7.6479 3.13887C7.79335 3.18726 7.94731 3.20472 8.0999 3.19012H10.2299L4.1099 18.5501H1.4699C1.31731 18.5355 1.16335 18.553 1.0179 18.6014C0.87245 18.6497 0.738719 18.728 0.625284 18.8311C0.511849 18.9342 0.421215 19.0599 0.359195 19.2001C0.297174 19.3402 0.265137 19.4918 0.265137 19.6451C0.265137 19.7984 0.297174 19.95 0.359195 20.0902C0.421215 20.2304 0.511849 20.356 0.625284 20.4591C0.738719 20.5622 0.87245 20.6405 1.0179 20.6889C1.16335 20.7373 1.31731 20.7547 1.4699 20.7401H8.7999C8.95249 20.7547 9.10645 20.7373 9.2519 20.6889C9.39735 20.6405 9.53108 20.5622 9.64451 20.4591C9.75795 20.356 9.84858 20.2304 9.9106 20.0902C9.97262 19.95 10.0047 19.7984 10.0047 19.6451C10.0047 19.4918 9.97262 19.3402 9.9106 19.2001C9.84858 19.0599 9.75795 18.9342 9.64451 18.8311C9.53108 18.728 9.39735 18.6497 9.2519 18.6014C9.10645 18.553 8.95249 18.5355 8.7999 18.5501H6.5099L12.6399 3.19012H15.4199C15.5725 3.20472 15.7264 3.18726 15.8719 3.13887C16.0173 3.09048 16.1511 3.01223 16.2645 2.90913C16.3779 2.80603 16.4686 2.68036 16.5306 2.54018C16.5926 2.4 16.6247 2.24841 16.6247 2.09512C16.6247 1.94183 16.5926 1.79023 16.5306 1.65005C16.4686 1.50987 16.3779 1.3842 16.2645 1.2811C16.1511 1.178 16.0173 1.09975 15.8719 1.05136C15.7264 1.00297 15.5725 0.985519 15.4199 1.00012Z" fill="#128277"/>
</svg>
