<svg width="31" height="33" viewBox="0 0 31 33" fill="none" xmlns="http://www.w3.org/2000/svg">
<path d="M30.125 16.5C30.125 16.7901 29.9966 17.0683 29.768 17.2734C29.5395 17.4785 29.2295 17.5938 28.9062 17.5938H2.09375C1.77052 17.5938 1.46052 17.4785 1.23196 17.2734C1.0034 17.0683 0.875 16.7901 0.875 16.5C0.875 16.2099 1.0034 15.9317 1.23196 15.7266C1.46052 15.5215 1.77052 15.4062 2.09375 15.4062H28.9062C29.2295 15.4062 29.5395 15.5215 29.768 15.7266C29.9966 15.9317 30.125 16.2099 30.125 16.5ZM14.6382 12.8984C14.6464 12.9058 14.6556 12.9121 14.6639 12.9193C14.6845 12.9367 14.7051 12.9543 14.727 12.9705C14.7432 12.9824 14.7602 12.9929 14.777 13.004C14.7922 13.0141 14.807 13.0247 14.8227 13.0342C14.8414 13.0454 14.8606 13.0551 14.8797 13.0652C14.8949 13.0733 14.9097 13.0819 14.9252 13.0893C14.9441 13.0984 14.9634 13.1061 14.9828 13.1143C14.9996 13.1214 15.0162 13.1289 15.0334 13.1354C15.0518 13.1422 15.0707 13.1477 15.0894 13.1537C15.1082 13.1598 15.1268 13.1662 15.1461 13.1714C15.1645 13.1765 15.1834 13.1802 15.2022 13.1844C15.222 13.1889 15.2416 13.194 15.2617 13.1976C15.2832 13.2014 15.305 13.2036 15.3265 13.2064C15.3443 13.2086 15.3617 13.2116 15.3798 13.2133C15.4598 13.2204 15.5404 13.2204 15.6204 13.2133C15.6383 13.2116 15.6557 13.2086 15.6735 13.2064C15.695 13.2037 15.7168 13.2014 15.7381 13.1976C15.7584 13.194 15.778 13.1889 15.7978 13.1844C15.8166 13.1803 15.8355 13.1765 15.8539 13.1714C15.8732 13.1662 15.8918 13.1598 15.9106 13.1537C15.9293 13.1477 15.9482 13.1422 15.9666 13.1354C15.9838 13.1289 16.0005 13.1214 16.0172 13.1143C16.0366 13.1061 16.0559 13.0984 16.0748 13.0893C16.0903 13.0819 16.1053 13.0733 16.1203 13.0652C16.1394 13.0551 16.1586 13.0454 16.1772 13.0342C16.193 13.0247 16.2076 13.0141 16.223 13.0041C16.2398 12.9929 16.2568 12.9824 16.273 12.9705C16.2949 12.9543 16.3155 12.9367 16.3361 12.9193C16.3444 12.9122 16.3536 12.9058 16.362 12.8984L21.237 8.52342C21.4655 8.31828 21.5939 8.04005 21.5939 7.74995C21.5939 7.45985 21.4655 7.18164 21.2369 6.97651C21.0083 6.77139 20.6983 6.65616 20.375 6.65617C20.0518 6.65619 19.7418 6.77144 19.5132 6.97658L16.7188 9.48441V1.1875C16.7188 0.897419 16.5903 0.61922 16.3618 0.414102C16.1332 0.208984 15.8232 0.09375 15.5 0.09375C15.1768 0.09375 14.8668 0.208984 14.6382 0.414102C14.4097 0.61922 14.2812 0.897419 14.2812 1.1875V9.48441L11.4868 6.97658C11.3736 6.87502 11.2393 6.79445 11.0914 6.73948C10.9435 6.68451 10.7851 6.65622 10.625 6.65622C10.3018 6.65622 9.99176 6.77146 9.76319 6.97658C9.65002 7.07815 9.56024 7.19873 9.49899 7.33143C9.43774 7.46413 9.40622 7.60636 9.40622 7.75C9.40622 8.04009 9.53463 8.31829 9.76319 8.52342L14.6382 12.8984ZM16.3618 20.1016C16.3537 20.0943 16.3449 20.088 16.3365 20.0811C16.316 20.0632 16.2948 20.0461 16.273 20.0295C16.2571 20.0178 16.2404 20.0077 16.2239 19.9967C16.2084 19.9863 16.1933 19.9754 16.177 19.9657C16.159 19.9549 16.1405 19.9454 16.1219 19.9356C16.1062 19.9271 16.0908 19.9182 16.0746 19.9106C16.0564 19.9018 16.0381 19.8946 16.0196 19.8868C16.0018 19.8793 15.9843 19.8712 15.9662 19.8645C15.949 19.8581 15.9314 19.853 15.9141 19.8474C15.8938 19.8409 15.8739 19.8339 15.8531 19.8283C15.8365 19.8238 15.8196 19.8205 15.8029 19.8167C15.7811 19.8117 15.7596 19.8063 15.7375 19.8023C15.7191 19.799 15.7003 19.7972 15.6816 19.7948C15.661 19.7921 15.6405 19.7885 15.6194 19.7866C15.5887 19.7842 15.5578 19.7828 15.527 19.7825C15.5178 19.7823 15.5091 19.7812 15.5 19.7812C15.4909 19.7812 15.482 19.7823 15.473 19.7825C15.4422 19.7828 15.4113 19.7842 15.3806 19.7866C15.3595 19.7885 15.339 19.7921 15.3184 19.7948C15.2997 19.7972 15.2809 19.799 15.2625 19.8023C15.2404 19.8064 15.2189 19.8117 15.1973 19.8167C15.1805 19.8205 15.1635 19.8238 15.1469 19.8283C15.1261 19.8339 15.1062 19.8409 15.0859 19.8474C15.0686 19.8529 15.0509 19.8581 15.0338 19.8645C15.0155 19.8713 14.9982 19.8793 14.9805 19.8868C14.9621 19.8946 14.9435 19.9018 14.9255 19.9106C14.9092 19.9182 14.894 19.9271 14.8781 19.9356C14.8595 19.9454 14.841 19.9549 14.823 19.9657C14.8067 19.9754 14.7916 19.9862 14.7761 19.9967C14.7596 20.0077 14.7429 20.0178 14.727 20.0295C14.7049 20.0459 14.6842 20.0634 14.6635 20.0811C14.6551 20.088 14.6463 20.0943 14.6382 20.1016L9.76319 24.4766C9.65002 24.5781 9.56024 24.6987 9.49899 24.8314C9.43774 24.9641 9.40622 25.1064 9.40622 25.25C9.40622 25.3936 9.43774 25.5359 9.49899 25.6686C9.56024 25.8013 9.65002 25.9219 9.76319 26.0234C9.87637 26.125 10.0107 26.2056 10.1586 26.2605C10.3065 26.3155 10.4649 26.3438 10.625 26.3438C10.7851 26.3438 10.9435 26.3155 11.0914 26.2605C11.2393 26.2056 11.3736 26.125 11.4868 26.0234L14.2812 23.5156V31.8125C14.2812 32.1026 14.4097 32.3808 14.6382 32.5859C14.8668 32.791 15.1768 32.9062 15.5 32.9062C15.8232 32.9062 16.1332 32.791 16.3618 32.5859C16.5903 32.3808 16.7188 32.1026 16.7188 31.8125V23.5156L19.5132 26.0234C19.7418 26.2285 20.0518 26.3438 20.375 26.3438C20.6982 26.3438 21.0082 26.2285 21.2368 26.0234C21.4654 25.8183 21.5938 25.5401 21.5938 25.25C21.5938 24.9599 21.4654 24.6817 21.2368 24.4766L16.3618 20.1016Z" fill="#128277"/>
</svg>
