<svg width="18" height="14" viewBox="0 0 18 14" fill="none" xmlns="http://www.w3.org/2000/svg">
<path fill-rule="evenodd" clip-rule="evenodd" d="M5.14307 11.8605C5.14307 11.6889 5.2108 11.5243 5.33136 11.403C5.45191 11.2817 5.61543 11.2135 5.78592 11.2135H17.3574C17.5278 11.2135 17.6914 11.2817 17.8119 11.403C17.9325 11.5243 18.0002 11.6889 18.0002 11.8605C18.0002 12.0321 17.9325 12.1966 17.8119 12.318C17.6914 12.4393 17.5278 12.5075 17.3574 12.5075H5.78592C5.61543 12.5075 5.45191 12.4393 5.33136 12.318C5.2108 12.1966 5.14307 12.0321 5.14307 11.8605ZM5.14307 6.68463C5.14307 6.51304 5.2108 6.34848 5.33136 6.22715C5.45191 6.10582 5.61543 6.03765 5.78592 6.03765H17.3574C17.5278 6.03765 17.6914 6.10582 17.8119 6.22715C17.9325 6.34848 18.0002 6.51304 18.0002 6.68463C18.0002 6.85622 17.9325 7.02079 17.8119 7.14212C17.6914 7.26345 17.5278 7.33161 17.3574 7.33161H5.78592C5.61543 7.33161 5.45191 7.26345 5.33136 7.14212C5.2108 7.02079 5.14307 6.85622 5.14307 6.68463ZM5.14307 1.5088C5.14307 1.33721 5.2108 1.17264 5.33136 1.05131C5.45191 0.92998 5.61543 0.861816 5.78592 0.861816H17.3574C17.5278 0.861816 17.6914 0.92998 17.8119 1.05131C17.9325 1.17264 18.0002 1.33721 18.0002 1.5088C18.0002 1.68039 17.9325 1.84495 17.8119 1.96628C17.6914 2.08761 17.5278 2.15578 17.3574 2.15578H5.78592C5.61543 2.15578 5.45191 2.08761 5.33136 1.96628C5.2108 1.84495 5.14307 1.68039 5.14307 1.5088Z" fill="#004B47"/>
<path d="M0.916714 12.3327V11.7194H1.28571C1.56471 11.7194 1.75243 11.5421 1.75243 11.3092C1.75243 11.0698 1.54929 10.9081 1.28829 10.9081C1.00157 10.9081 0.816428 11.1048 0.808714 11.3092H0.0501429C0.0707143 10.7049 0.529714 10.2909 1.31786 10.2909C2.07386 10.2883 2.54443 10.6674 2.54829 11.2005C2.55072 11.3834 2.48841 11.5611 2.3725 11.7019C2.2566 11.8428 2.09467 11.9375 1.91571 11.9691V12.0118C2.11861 12.0271 2.30787 12.1204 2.44412 12.2725C2.58038 12.4246 2.65314 12.6236 2.64729 12.8283C2.65114 13.518 2.00186 13.8635 1.296 13.8635C0.452571 13.8635 0.0102857 13.3847 0 12.8361H0.748286C0.758571 13.0664 0.987428 13.232 1.29086 13.2359C1.61743 13.2359 1.836 13.0483 1.83343 12.783C1.83086 12.5307 1.63414 12.3327 1.30114 12.3327H0.915428H0.916714ZM0.911571 6.25241H0.135V6.20712C0.135 5.67919 0.514286 5.11502 1.36671 5.11502C2.11629 5.11502 2.601 5.53685 2.601 6.09326C2.601 6.59661 2.27057 6.89163 1.989 7.19053L1.29857 7.93068V7.9695H2.65371V8.62554H0.183857V8.11442L1.41429 6.8334C1.59171 6.64966 1.791 6.44004 1.791 6.17607C1.791 5.94316 1.602 5.762 1.35129 5.762C1.29341 5.75987 1.23571 5.76968 1.18174 5.79083C1.12777 5.81199 1.07867 5.84404 1.03748 5.88501C0.996286 5.92599 0.963863 5.97501 0.942209 6.02908C0.920555 6.08314 0.910128 6.14109 0.911571 6.19936V6.25241ZM2.01086 3.4497H1.19443V0.763436H1.15457L0.385714 1.3069V0.573224L1.19443 0H2.01086V3.4497Z" fill="#004B47"/>
</svg>
