<svg width="37" height="28" viewBox="0 0 37 28" fill="none" xmlns="http://www.w3.org/2000/svg">
<path d="M34.875 11.5312L24.9937 22.3977L22.125 20.2249H20.5312L24.9937 27.4688L36.4688 11.5312H34.875Z" fill="#128277"/>
<path fill-rule="evenodd" clip-rule="evenodd" d="M13.0918 15.716C13.6827 15.992 14.3587 16.1329 15.0438 16.1214C15.6562 16.131 16.2629 16.0265 16.8151 15.8163C17.3672 15.6061 17.8495 15.296 18.223 14.911C19.0481 14.0373 19.4669 12.9642 19.4083 11.8736C19.4686 10.905 19.0993 9.95035 18.3643 9.17537C18.0088 8.8284 17.5558 8.55235 17.0414 8.36937C16.5271 8.18638 15.9659 8.10155 15.4027 8.12168C14.388 8.11711 13.4062 8.407 12.6423 8.93674V4.99512H10.8461V15.9561H12.6495V15.4616C12.7873 15.5564 12.9359 15.6412 13.0918 15.716ZM14.2282 9.63106C14.5653 9.51749 14.9315 9.46862 15.2976 9.48731C15.6106 9.47935 15.9215 9.53107 16.204 9.63813C16.4866 9.74518 16.7327 9.90445 16.9216 10.1026C17.3874 10.6244 17.614 11.2554 17.5687 11.8922C17.6173 12.6462 17.3635 13.393 16.8437 14.0255C16.6539 14.253 16.3952 14.4392 16.0912 14.5668C15.7872 14.6944 15.4476 14.7593 15.1037 14.7557C14.771 14.7675 14.4392 14.7198 14.133 14.616C13.8267 14.5122 13.5539 14.3551 13.3347 14.1563C12.8718 13.7417 12.6244 13.2034 12.6423 12.6498V11.7873C12.6207 11.1884 12.8738 10.6036 13.3546 10.1414C13.5902 9.91999 13.8911 9.74462 14.2282 9.63106V9.63106ZM5.96141 8.15762C5.38338 8.16387 4.81022 8.24246 4.2631 8.39049C3.74138 8.51402 3.25073 8.70859 2.8131 8.96549L2.63185 9.07618V10.8012L3.39853 10.2851C4.07055 9.78168 4.9506 9.48941 5.87441 9.46287C6.10081 9.44655 6.32877 9.47504 6.53786 9.54579C6.74696 9.61654 6.93065 9.72734 7.07247 9.86824C7.34435 10.2017 7.48935 10.5913 7.49116 10.9881L5.25635 11.2482C4.33981 11.3242 3.47146 11.6115 2.75872 12.0748C2.47769 12.293 2.2537 12.5531 2.09957 12.8401C1.94543 13.1271 1.86419 13.4353 1.86048 13.7472C1.85678 14.0592 1.93069 14.3686 2.07798 14.6578C2.22527 14.9471 2.44305 15.2104 2.71885 15.4328C3.02459 15.6548 3.38259 15.8267 3.77232 15.9387C4.16205 16.0507 4.57583 16.1006 4.98991 16.0854C5.704 16.0899 6.40322 15.9236 6.99635 15.6082C7.18122 15.5104 7.35341 15.3997 7.51472 15.279V15.9172H9.22028V11.0901C9.28254 10.3128 8.97973 9.54464 8.37022 8.93387C8.06531 8.67204 7.69137 8.46673 7.27503 8.33257C6.85869 8.1984 6.41017 8.13866 5.96141 8.15762V8.15762ZM7.51472 12.5291C7.55097 13.1299 7.29722 13.7207 6.80603 14.1793C6.59201 14.3756 6.32575 14.5319 6.02644 14.6368C5.72713 14.7417 5.40222 14.7926 5.0751 14.7859C4.87658 14.7981 4.67699 14.7789 4.48784 14.7296C4.2987 14.6802 4.12375 14.6017 3.9731 14.4984C3.73525 14.2807 3.60432 14.0023 3.60432 13.7143C3.60432 13.4262 3.73525 13.1478 3.9731 12.9301C4.48241 12.68 5.0606 12.5319 5.65872 12.4989L7.50747 12.2861L7.51472 12.5291V12.5291ZM22.582 15.8597C23.1385 16.0466 23.742 16.1372 24.3456 16.1214C25.2428 16.1386 26.1273 15.9575 26.9012 15.5967L27.1242 15.4889L27.1477 15.4788V13.8214L26.3393 14.2814C25.7666 14.6034 25.0778 14.7701 24.3746 14.7543C24.0148 14.7656 23.6564 14.7114 23.3272 14.5958C22.9979 14.4802 22.7064 14.3062 22.4751 14.0873C21.9571 13.5475 21.6999 12.8785 21.7501 12.2013C21.702 11.4815 21.9948 10.7735 22.5712 10.2161C22.8253 9.97751 23.1445 9.7879 23.5047 9.66163C23.8649 9.53536 24.2566 9.47574 24.6501 9.48731C25.273 9.485 25.8837 9.62417 26.41 9.88837L27.1894 10.2693V8.58168L26.8813 8.47674C26.2132 8.24283 25.491 8.12191 24.7607 8.12168C24.1058 8.10712 23.4546 8.20446 22.8513 8.4071C22.2481 8.60974 21.7068 8.91294 21.2643 9.29612C20.347 10.1008 19.8613 11.1574 19.9104 12.2416C19.8597 13.2579 20.291 14.2541 21.1248 15.0289C21.5272 15.3868 22.0256 15.67 22.582 15.8597Z" fill="#128277"/>
</svg>
