<svg width="29" height="31" viewBox="0 0 29 31" fill="none" xmlns="http://www.w3.org/2000/svg">
<path d="M28.0467 6.21974L21.5865 0.344162C21.4665 0.235037 21.324 0.148477 21.1673 0.0894253C21.0105 0.0303734 20.8425 -1.361e-05 20.6728 4.57286e-09H7.75231C7.0672 0.000699817 6.41037 0.248537 5.92592 0.689139C5.44147 1.12974 5.16897 1.72713 5.1682 2.35023V4.70046H2.5841C1.89899 4.70116 1.24216 4.949 0.757716 5.3896C0.27327 5.8302 0.000769451 6.42759 0 7.05069V28.2028C0.000769451 28.8259 0.27327 29.4233 0.757716 29.8639C1.24216 30.3045 1.89899 30.5523 2.5841 30.553H20.6728C21.3579 30.5523 22.0148 30.3045 22.4992 29.8639C22.9837 29.4233 23.2562 28.8259 23.2569 28.2028V25.8525H25.841C26.5261 25.8518 27.183 25.604 27.6674 25.1634C28.1519 24.7228 28.4244 24.1254 28.4251 23.5023V7.05069C28.4251 6.89637 28.3917 6.74356 28.3268 6.60098C28.2619 6.4584 28.1667 6.32886 28.0467 6.21974ZM20.6728 28.2028H2.5841V7.05069H14.9695L20.6728 12.2379L20.6741 24.6544C20.6739 24.6621 20.6728 24.6696 20.6728 24.6774C20.6728 24.6852 20.6739 24.6928 20.6741 24.7006L20.6744 28.2028H20.6728ZM25.841 23.5023H23.2569V11.7512C23.2569 11.5968 23.2235 11.444 23.1586 11.3014C23.0937 11.1589 22.9985 11.0293 22.8785 10.9202L16.4183 5.04462C16.2983 4.9355 16.1558 4.84894 15.9991 4.78989C15.8423 4.73083 15.6743 4.70045 15.5046 4.70046H7.75231V2.35023H20.1377L25.841 7.53748V23.5023ZM16.7967 18.8018C16.7967 19.1135 16.6605 19.4124 16.4182 19.6328C16.1759 19.8532 15.8473 19.977 15.5046 19.977H7.75231C7.40963 19.977 7.081 19.8532 6.83869 19.6328C6.59638 19.4124 6.46026 19.1135 6.46026 18.8018C6.46026 18.4902 6.59638 18.1913 6.83869 17.9709C7.081 17.7505 7.40963 17.6267 7.75231 17.6267H15.5046C15.8473 17.6267 16.1759 17.7505 16.4182 17.9709C16.6605 18.1913 16.7967 18.4902 16.7967 18.8018ZM16.7967 23.5023C16.7967 23.814 16.6605 24.1129 16.4182 24.3332C16.1759 24.5536 15.8473 24.6774 15.5046 24.6774H7.75231C7.40963 24.6774 7.081 24.5536 6.83869 24.3332C6.59638 24.1129 6.46026 23.814 6.46026 23.5023C6.46026 23.1906 6.59638 22.8917 6.83869 22.6714C7.081 22.451 7.40963 22.3272 7.75231 22.3272H15.5046C15.8473 22.3272 16.1759 22.451 16.4182 22.6714C16.6605 22.8917 16.7967 23.1906 16.7967 23.5023Z" fill="#128277"/>
</svg>
