<svg width="22" height="19" viewBox="0 0 22 19" fill="none" xmlns="http://www.w3.org/2000/svg">
<path fill-rule="evenodd" clip-rule="evenodd" d="M20.7499 0.25C20.9488 0.25 21.1396 0.329018 21.2802 0.46967C21.4209 0.610322 21.4999 0.801088 21.4999 1V8.2C21.4999 8.69246 21.4029 9.18009 21.2144 9.63506C21.026 10.09 20.7497 10.5034 20.4015 10.8517C20.0533 11.1999 19.6399 11.4761 19.1849 11.6645C18.73 11.853 18.2423 11.95 17.7499 11.95H3.06038L8.08088 16.969C8.22171 17.1098 8.30082 17.3008 8.30082 17.5C8.30082 17.6992 8.22171 17.8902 8.08088 18.031C7.94005 18.1718 7.74904 18.2509 7.54988 18.2509C7.35071 18.2509 7.15971 18.1718 7.01888 18.031L0.718876 11.731C0.649031 11.6613 0.593617 11.5786 0.555807 11.4874C0.517997 11.3963 0.498535 11.2987 0.498535 11.2C0.498535 11.1013 0.517997 11.0037 0.555807 10.9125C0.593617 10.8214 0.649031 10.7387 0.718876 10.669L6.71888 4.669C6.85971 4.52817 7.05071 4.44905 7.24988 4.44905C7.44904 4.44905 7.64005 4.52817 7.78088 4.669C7.92171 4.80983 8.00082 5.00084 8.00082 5.2C8.00082 5.39916 7.92171 5.59017 7.78088 5.731L3.06038 10.45H17.7499C18.3466 10.45 18.9189 10.2129 19.3409 9.79099C19.7628 9.36903 19.9999 8.79674 19.9999 8.2V1C19.9999 0.801088 20.0789 0.610322 20.2195 0.46967C20.3602 0.329018 20.551 0.25 20.7499 0.25Z" fill="#128277"/>
</svg>
