<svg width="22" height="19" viewBox="0 0 22 19" fill="none" xmlns="http://www.w3.org/2000/svg">
<path fill-rule="evenodd" clip-rule="evenodd" d="M1.25 0.25C1.05109 0.25 0.860322 0.329018 0.71967 0.46967C0.579018 0.610322 0.5 0.801088 0.5 1V8.2C0.5 8.69246 0.596997 9.18009 0.785452 9.63506C0.973907 10.09 1.25013 10.5034 1.59835 10.8517C2.30161 11.5549 3.25544 11.95 4.25 11.95H18.9395L13.919 16.969C13.7782 17.1098 13.6991 17.3008 13.6991 17.5C13.6991 17.6992 13.7782 17.8902 13.919 18.031C14.0598 18.1718 14.2508 18.2509 14.45 18.2509C14.6492 18.2509 14.8402 18.1718 14.981 18.031L21.281 11.731C21.3508 11.6613 21.4063 11.5786 21.4441 11.4874C21.4819 11.3963 21.5013 11.2987 21.5013 11.2C21.5013 11.1013 21.4819 11.0037 21.4441 10.9125C21.4063 10.8214 21.3508 10.7387 21.281 10.669L15.281 4.669C15.1402 4.52817 14.9492 4.44905 14.75 4.44905C14.5508 4.44905 14.3598 4.52817 14.219 4.669C14.0782 4.80983 13.9991 5.00084 13.9991 5.2C13.9991 5.39916 14.0782 5.59017 14.219 5.731L18.9395 10.45H4.25C3.65326 10.45 3.08097 10.2129 2.65901 9.79099C2.23705 9.36903 2 8.79674 2 8.2V1C2 0.801088 1.92098 0.610322 1.78033 0.46967C1.63968 0.329018 1.44891 0.25 1.25 0.25Z" fill="#128277"/>
</svg>
