<svg width="19" height="19" viewBox="0 0 19 19" fill="none" xmlns="http://www.w3.org/2000/svg">
<path d="M17.5001 15.6665C17.5001 15.777 17.4474 15.883 17.3536 15.9611C17.2598 16.0393 17.1327 16.0832 17.0001 16.0832H12.7711C12.6014 16.5332 12.341 16.956 12.0011 17.3332H17.0001C17.5305 17.3332 18.0392 17.1576 18.4143 16.845C18.7893 16.5325 19.0001 16.1085 19.0001 15.6665V7.18984C18.9999 6.74785 18.7892 6.32399 18.4141 6.0115L12.5851 1.15484C12.5696 1.14286 12.5532 1.13173 12.5361 1.1215C12.5237 1.11355 12.5117 1.10521 12.5001 1.0965C12.4313 1.0424 12.3581 0.992279 12.2811 0.946504C12.2555 0.932739 12.2287 0.920487 12.2011 0.909837L12.1531 0.889837L12.1031 0.865671C12.0491 0.839837 11.9941 0.813171 11.9371 0.793171C11.7379 0.72689 11.5272 0.688049 11.3131 0.678171C11.2931 0.677337 11.2731 0.674837 11.2541 0.672337C11.2269 0.668844 11.1995 0.666895 11.1721 0.666504H5.00006C4.46963 0.666504 3.96092 0.842099 3.58585 1.15466C3.21078 1.46722 3.00006 1.89114 3.00006 2.33317V10.6665H4.50006V2.33317C4.50006 2.22266 4.55274 2.11668 4.64651 2.03854C4.74028 1.9604 4.86746 1.9165 5.00006 1.9165H11.0001V5.6665C11.0001 6.10853 11.2108 6.53245 11.5859 6.84501C11.9609 7.15758 12.4696 7.33317 13.0001 7.33317H17.5001V15.6665ZM12.5001 2.85067L16.3781 6.08317H13.0001C12.8675 6.08317 12.7403 6.03927 12.6465 5.96113C12.5527 5.88299 12.5001 5.77701 12.5001 5.6665V2.85067ZM4.75006 12.1248C4.75006 11.9591 4.67105 11.8001 4.53039 11.6829C4.38974 11.5657 4.19898 11.4998 4.00006 11.4998L3.80006 11.504C2.75781 11.5475 1.77721 11.9286 1.0675 12.5662C0.357786 13.2037 -0.0248446 14.0472 0.00125238 14.9165C0.0273494 15.7859 0.460107 16.6123 1.20719 17.2195C1.95427 17.8267 2.95651 18.1665 4.00006 18.1665L4.10206 18.1607C4.29031 18.1391 4.46171 18.0588 4.58163 17.9359C4.70155 17.8131 4.76104 17.6569 4.74809 17.4989C4.73514 17.3409 4.65071 17.1929 4.51186 17.0848C4.373 16.9767 4.19009 16.9166 4.00006 16.9165L3.83606 16.9123C3.18747 16.8781 2.58036 16.6348 2.14341 16.2339C1.70645 15.833 1.474 15.3061 1.49533 14.7648C1.51665 14.2235 1.79008 13.7104 2.25765 13.3343C2.72522 12.9581 3.35018 12.7485 4.00006 12.7498L4.10206 12.744C4.28162 12.7235 4.44617 12.6494 4.5653 12.5356C4.68442 12.4218 4.75006 12.2759 4.75006 12.1248V12.1248ZM12.0001 14.8332C12.0001 13.9491 11.5786 13.1013 10.8285 12.4761C10.0783 11.851 9.06093 11.4998 8.00006 11.4998L7.89806 11.5057C7.70981 11.5273 7.53841 11.6076 7.4185 11.7304C7.29858 11.8533 7.23909 12.0095 7.25204 12.1674C7.26499 12.3254 7.34942 12.4734 7.48827 12.5815C7.62712 12.6896 7.81004 12.7498 8.00006 12.7498L8.16406 12.754C8.81265 12.7882 9.41977 13.0316 9.85672 13.4324C10.2937 13.8333 10.5261 14.3603 10.5048 14.9015C10.4835 15.4428 10.21 15.9559 9.74248 16.3321C9.27491 16.7082 8.64995 16.9178 8.00006 16.9165L7.89806 16.9223C7.70981 16.9439 7.53841 17.0242 7.4185 17.1471C7.29858 17.2699 7.23909 17.4261 7.25204 17.5841C7.26499 17.7421 7.34942 17.8901 7.48827 17.9982C7.62712 18.1063 7.81004 18.1665 8.00006 18.1665L8.20006 18.1623C9.22502 18.1196 10.1911 17.7502 10.8983 17.1305C11.6056 16.5109 12.0001 15.6884 12.0001 14.8332ZM7.75006 14.2082H4.25006L4.14806 14.214C3.95981 14.2356 3.78841 14.3159 3.6685 14.4388C3.54858 14.5616 3.48909 14.7178 3.50204 14.8758C3.51499 15.0338 3.59942 15.1818 3.73827 15.2899C3.87712 15.398 4.06004 15.4581 4.25006 15.4582H7.75006L7.85206 15.4523C8.04031 15.4308 8.21171 15.3504 8.33163 15.2276C8.45155 15.1047 8.51104 14.9486 8.49809 14.7906C8.48514 14.6326 8.40071 14.4846 8.26186 14.3765C8.123 14.2684 7.94009 14.2082 7.75006 14.2082V14.2082Z" fill="#128277"/>
</svg>
