<svg width="23" height="22" viewBox="0 0 23 22" fill="none" xmlns="http://www.w3.org/2000/svg">
<path d="M1.53125 10.4998H21.4688C21.73 10.4999 21.9815 10.5932 22.1725 10.7607C22.3634 10.9283 22.4795 11.1577 22.4973 11.4026C22.5151 11.6474 22.4333 11.8895 22.2684 12.0799C22.1035 12.2703 21.8678 12.3948 21.609 12.4283L21.4688 12.4373H17.3795C18.5881 13.4875 19.2165 14.7533 19.2165 16.2284C19.2165 19.8773 14.7725 22.2217 9.92838 21.6921C6.85663 21.3563 4.69238 20.2002 3.55663 18.202C3.42771 17.9754 3.39991 17.71 3.47933 17.4641C3.55875 17.2183 3.73889 17.0121 3.98013 16.891C4.22136 16.7699 4.50392 16.7438 4.76565 16.8184C5.02738 16.893 5.24684 17.0622 5.37575 17.2888C6.1595 18.6683 7.716 19.5002 10.1662 19.7688C13.9379 20.1796 17.154 18.4836 17.154 16.2284C17.154 14.7145 16.0471 13.481 13.6271 12.5006L13.4676 12.4373H1.53125C1.28205 12.4373 1.04128 12.3525 0.853471 12.1987C0.665661 12.0448 0.543516 11.8323 0.509625 11.6003L0.5 11.4686C0.500011 11.2345 0.590259 11.0083 0.754055 10.8319C0.917851 10.6555 1.14411 10.5407 1.391 10.5089L1.53125 10.4998H21.4688H1.53125ZM3.6075 5.49204C3.81788 1.83663 7.48912 -0.279125 12.303 0.246584C15.3129 0.574667 17.616 1.60671 19.1546 3.35821C19.3288 3.55639 19.412 3.81143 19.3859 4.06723C19.3599 4.32303 19.2267 4.55863 19.0157 4.72221C18.8048 4.88579 18.5333 4.96394 18.261 4.93947C17.9887 4.91501 17.7379 4.78993 17.5637 4.59175C16.3923 3.25746 14.5786 2.445 12.0651 2.17117C8.32788 1.763 5.67138 3.20967 5.67138 5.49204C5.67138 6.48921 5.99312 7.23321 6.81262 8.05212L6.98862 8.22263C7.11787 8.34663 7.25812 8.4745 7.33237 8.53263L7.37362 8.55846H4.73775L4.70338 8.50937C4.50675 8.24329 3.52638 6.96583 3.61025 5.49204H3.6075Z" fill="#128277"/>
</svg>
