<svg width="18" height="13" viewBox="0 0 18 13" fill="none" xmlns="http://www.w3.org/2000/svg">
<path fill-rule="evenodd" clip-rule="evenodd" d="M5.45536 11.6562C5.45536 11.4988 5.52144 11.3478 5.63907 11.2364C5.7567 11.1251 5.91624 11.0625 6.08259 11.0625H17.3728C17.5391 11.0625 17.6987 11.1251 17.8163 11.2364C17.9339 11.3478 18 11.4988 18 11.6562C18 11.8137 17.9339 11.9647 17.8163 12.0761C17.6987 12.1874 17.5391 12.25 17.3728 12.25H6.08259C5.91624 12.25 5.7567 12.1874 5.63907 12.0761C5.52144 11.9647 5.45536 11.8137 5.45536 11.6562ZM5.45536 6.90625C5.45536 6.74878 5.52144 6.59776 5.63907 6.48641C5.7567 6.37506 5.91624 6.3125 6.08259 6.3125H17.3728C17.5391 6.3125 17.6987 6.37506 17.8163 6.48641C17.9339 6.59776 18 6.74878 18 6.90625C18 7.06372 17.9339 7.21474 17.8163 7.32609C17.6987 7.43744 17.5391 7.5 17.3728 7.5H6.08259C5.91624 7.5 5.7567 7.43744 5.63907 7.32609C5.52144 7.21474 5.45536 7.06372 5.45536 6.90625ZM5.45536 2.15625C5.45536 1.99878 5.52144 1.84776 5.63907 1.73641C5.7567 1.62506 5.91624 1.5625 6.08259 1.5625H17.3728C17.5391 1.5625 17.6987 1.62506 17.8163 1.73641C17.9339 1.84776 18 1.99878 18 2.15625C18 2.31372 17.9339 2.46474 17.8163 2.57609C17.6987 2.68744 17.5391 2.75 17.3728 2.75H6.08259C5.91624 2.75 5.7567 2.68744 5.63907 2.57609C5.52144 2.46474 5.45536 2.31372 5.45536 2.15625ZM1.69196 3.34375C2.02467 3.34375 2.34375 3.21864 2.579 2.99594C2.81426 2.77324 2.94643 2.47119 2.94643 2.15625C2.94643 1.84131 2.81426 1.53926 2.579 1.31656C2.34375 1.09386 2.02467 0.96875 1.69196 0.96875C1.35926 0.96875 1.04018 1.09386 0.804924 1.31656C0.569666 1.53926 0.4375 1.84131 0.4375 2.15625C0.4375 2.47119 0.569666 2.77324 0.804924 2.99594C1.04018 3.21864 1.35926 3.34375 1.69196 3.34375V3.34375ZM1.69196 8.09375C2.02467 8.09375 2.34375 7.96864 2.579 7.74594C2.81426 7.52324 2.94643 7.22119 2.94643 6.90625C2.94643 6.59131 2.81426 6.28926 2.579 6.06656C2.34375 5.84386 2.02467 5.71875 1.69196 5.71875C1.35926 5.71875 1.04018 5.84386 0.804924 6.06656C0.569666 6.28926 0.4375 6.59131 0.4375 6.90625C0.4375 7.22119 0.569666 7.52324 0.804924 7.74594C1.04018 7.96864 1.35926 8.09375 1.69196 8.09375V8.09375ZM1.69196 12.8438C2.02467 12.8438 2.34375 12.7186 2.579 12.4959C2.81426 12.2732 2.94643 11.9712 2.94643 11.6562C2.94643 11.3413 2.81426 11.0393 2.579 10.8166C2.34375 10.5939 2.02467 10.4688 1.69196 10.4688C1.35926 10.4688 1.04018 10.5939 0.804924 10.8166C0.569666 11.0393 0.4375 11.3413 0.4375 11.6562C0.4375 11.9712 0.569666 12.2732 0.804924 12.4959C1.04018 12.7186 1.35926 12.8438 1.69196 12.8438V12.8438Z" fill="#004B47"/>
</svg>
